<?xml version="1.0" encoding="UTF-8" standalone="no"?>
<!DOCTYPE svg PUBLIC "-//W3C//DTD SVG 1.1//EN" "http://www.w3.org/Graphics/SVG/1.1/DTD/svg11.dtd">
<svg xmlns="http://www.w3.org/2000/svg" version="1.1" viewBox="0 0 1024 1024" width="1024.0pt" height="1024.0pt">
<path d="M 0.00 0.00 L 1024.00 0.00 L 1024.00 1024.00 L 0.00 1024.00 L 0.00 0.00 Z" fill="#699bff" />
<path d="M 521.00 166.04 C 584.19 167.48 646.77 186.79 699.77 221.23 C 729.82 240.65 756.84 264.81 779.55 292.45 C 814.83 335.28 839.52 386.65 850.81 440.99 C 856.27 467.25 858.71 494.19 857.95 521.00 C 856.54 584.90 836.76 648.16 801.61 701.55 C 779.82 734.87 752.14 764.35 720.39 788.35 C 687.06 813.54 649.16 832.63 609.05 844.30 C 574.39 854.40 538.09 859.05 502.00 857.92 C 439.14 856.35 376.96 837.01 324.23 802.77 C 291.99 781.94 263.25 755.65 239.56 725.46 C 194.32 668.01 168.04 596.14 166.14 523.00 C 163.61 453.12 183.13 382.84 221.23 324.22 C 242.74 290.97 269.98 261.48 301.39 237.36 C 339.62 207.92 384.08 186.66 431.01 175.44 C 460.41 168.39 490.78 165.21 521.00 166.04 Z" fill="#000000" />
<path d="M 534.99 228.25 C 569.07 230.95 602.63 239.86 633.53 254.51 C 667.34 270.48 697.95 293.25 723.04 320.98 C 747.73 348.21 767.10 380.21 779.63 414.78 C 793.49 452.80 798.95 493.86 795.80 534.19 C 792.88 572.75 781.95 610.66 763.84 644.83 C 748.33 674.18 727.64 700.78 703.02 723.04 C 668.52 754.36 626.28 777.04 581.03 788.24 C 547.86 796.53 513.00 798.72 479.05 794.76 C 412.69 787.38 349.82 755.47 304.34 706.66 C 274.30 674.75 251.78 635.78 239.26 593.78 C 220.78 532.27 223.83 464.66 248.06 405.15 C 263.31 367.48 286.78 333.21 316.30 305.30 C 344.50 278.53 378.23 257.64 414.78 244.36 C 453.09 230.42 494.37 224.98 534.99 228.25 Z" fill="#ffff00" />
<path d="M 331.15 348.98 C 337.55 348.38 344.14 349.97 349.57 353.41 C 359.40 359.63 364.81 371.51 362.76 383.01 C 360.82 395.81 349.86 406.07 337.02 407.40 C 327.07 408.53 316.83 404.21 310.71 396.29 C 305.03 389.08 302.98 379.30 305.49 370.45 C 308.62 358.81 319.12 349.97 331.15 348.98 Z" fill="#000000" />
<path d="M 684.15 348.97 C 696.03 347.81 707.78 354.39 713.03 365.09 C 719.08 376.96 715.96 392.21 705.62 400.66 C 695.22 409.60 679.41 409.84 668.68 401.31 C 657.21 392.51 653.98 375.87 661.40 363.42 C 666.19 355.23 674.69 349.81 684.15 348.97 Z" fill="#000000" />
<path d="M 308.00 456.69 C 440.28 456.74 572.70 456.73 705.00 456.75 C 710.50 456.79 715.50 456.29 720.83 458.12 C 729.06 460.83 735.15 467.94 737.48 476.18 C 740.02 485.25 739.83 495.63 739.98 505.00 C 740.01 516.33 740.11 527.80 738.90 539.07 C 735.45 576.33 722.52 612.68 701.82 643.84 C 687.33 665.77 668.99 685.17 647.97 700.96 C 619.26 722.56 585.43 737.27 550.02 743.40 C 520.56 748.53 490.04 747.91 460.83 741.48 C 427.89 734.29 396.66 719.63 370.01 698.98 C 342.22 677.53 319.44 649.67 304.01 618.14 C 288.10 585.89 280.17 549.94 280.58 514.00 C 280.69 507.01 280.43 499.94 281.10 492.99 C 281.46 484.37 282.27 473.90 287.81 466.83 C 292.28 460.44 300.25 456.63 308.00 456.69 Z" fill="#000000" />
<path d="M 328.45 504.52 C 449.71 504.55 570.96 504.55 692.21 504.60 C 692.33 516.96 692.27 529.97 690.40 542.25 C 687.64 562.15 681.51 581.59 672.36 599.48 C 656.78 630.17 632.23 656.25 602.60 673.75 C 573.01 691.31 538.39 700.16 504.00 698.85 C 484.93 698.30 465.92 694.50 448.00 687.98 C 416.22 676.38 387.81 655.69 367.03 628.99 C 346.96 603.40 333.95 572.40 329.89 540.13 C 328.21 528.28 328.27 516.45 328.45 504.52 Z" fill="#ffffff" />
</svg>